<?xml version="1.0" standalone="no"?><!DOCTYPE svg PUBLIC "-//W3C//DTD SVG 1.1//EN" "http://www.w3.org/Graphics/SVG/1.1/DTD/svg11.dtd"><svg t="1773226729441" class="icon" viewBox="0 0 1024 1024" version="1.1" xmlns="http://www.w3.org/2000/svg" p-id="4829" xmlns:xlink="http://www.w3.org/1999/xlink" width="200" height="200"><path d="M880.2 129.5H139c-42.6 0-77.3 34.7-77.3 77.3V819c0 42.6 34.7 77.3 77.3 77.3h741.3c42.6 0 77.3-34.7 77.3-77.3V206.9c0-42.7-34.7-77.4-77.4-77.4z m-12.6 90v178.3c-52.6-19.9-103-22.5-146.6-7.4-63.8 22.1-95 77.6-122.4 126.6-18.4 32.8-35.8 63.9-58.7 76.4-9.7 5.3-13.4 6.5-25.5-4-18.8-16.2-41.3-50.2-67.3-89.6-14.9-22.5-31.8-48-50.9-74.8-35.5-49.6-78.6-60.9-108.4-61.6-42.4-1-88.1 17.9-136 56.3V219.5h715.8z m-716 586.8V545.7c25.2-31.2 89.5-93.2 133.9-92.1 9.5 0.2 22.4 3.2 37.3 24 18.2 25.4 34.6 50.2 49.1 72.1 31 46.8 55.4 83.7 83.6 108 25.6 22.1 50.5 29.8 72.9 29.8 21 0 39.8-6.9 54.8-15.1 45.5-25 71.2-70.8 93.9-111.3 22.5-40.1 41.9-74.7 73.4-85.6 31.5-10.9 67.3-1.1 91.8 9.1 9.4 3.9 18 8.2 25.3 12.2v309.5h-716z" p-id="4830"></path></svg>